<svg width="1098" height="658" viewBox="0 0 1098 658" fill="none" xmlns="http://www.w3.org/2000/svg">
<rect width="1098" height="658" fill="white"/>
<path d="M684.125 360.666C694.672 360.716 703.984 353.795 706.977 343.682L770.828 343.682C775.186 343.682 778.722 340.146 778.724 335.786C778.724 331.423 775.188 327.887 770.826 327.887L706.979 327.887C705.862 324.092 703.807 320.637 701.002 317.845L700.956 317.799C696.498 313.336 690.434 310.853 684.125 310.906L676.953 310.941L676.953 360.631L684.125 360.666Z" fill="black"/>
<path d="M380.5 396.016C380.5 400.379 384.036 403.915 388.399 403.915C392.761 403.915 396.297 400.379 396.295 396.018L396.295 357.933L437.498 357.935V410.024C437.498 414.387 441.034 417.923 445.396 417.923C449.757 417.921 453.293 414.385 453.295 410.024L453.293 378.459L645.366 378.459C654.091 378.459 661.16 371.389 661.16 362.664L661.16 308.903C661.15 300.185 654.084 293.119 645.366 293.108L625.952 293.108L625.753 322.628C625.753 325.459 624.235 328.077 621.775 329.486C619.314 330.891 616.289 330.871 613.846 329.432C611.407 327.992 609.922 325.355 609.959 322.521L610.153 293.106L582.387 293.108L582.594 333.159C582.616 337.518 579.1 341.073 574.737 341.095C570.377 341.119 566.823 337.601 566.799 333.24L566.594 293.108L539.197 293.108V322.334C539.197 326.696 535.661 330.232 531.301 330.23C526.938 330.23 523.402 326.694 523.4 322.334L523.402 293.111L503.694 293.108V333.205C503.696 337.566 500.16 341.102 495.798 341.102C491.435 341.102 487.899 337.566 487.901 333.205L487.899 293.111H453.29L453.293 261.545C453.29 257.184 449.754 253.649 445.392 253.649C441.034 253.649 437.498 257.184 437.498 261.547L437.498 310.051L396.295 310.227L396.297 275.555C396.295 271.195 392.759 267.659 388.399 267.661C384.038 267.659 380.502 271.195 380.502 275.558L380.5 396.016Z" fill="black"/>
<path d="M549 85L562.92 127.841H607.965L571.523 154.318L585.443 197.159L549 170.682L512.557 197.159L526.477 154.318L490.034 127.841H535.08L549 85Z" fill="black"/>
<path d="M285.969 530.539V523.82L310.227 523.781V545.031C306.503 548 302.661 550.24 298.703 551.75C294.745 553.234 290.682 553.977 286.516 553.977C280.891 553.977 275.773 552.779 271.164 550.383C266.581 547.961 263.117 544.471 260.773 539.914C258.43 535.357 257.258 530.266 257.258 524.641C257.258 519.068 258.417 513.872 260.734 509.055C263.078 504.211 266.438 500.617 270.812 498.273C275.188 495.93 280.227 494.758 285.93 494.758C290.07 494.758 293.807 495.435 297.141 496.789C300.5 498.117 303.13 499.979 305.031 502.375C306.932 504.771 308.378 507.896 309.367 511.75L302.531 513.625C301.672 510.708 300.604 508.417 299.328 506.75C298.052 505.083 296.229 503.755 293.859 502.766C291.49 501.75 288.859 501.242 285.969 501.242C282.505 501.242 279.51 501.776 276.984 502.844C274.458 503.885 272.414 505.266 270.852 506.984C269.315 508.703 268.117 510.591 267.258 512.648C265.799 516.19 265.07 520.031 265.07 524.172C265.07 529.276 265.943 533.547 267.688 536.984C269.458 540.422 272.023 542.974 275.383 544.641C278.742 546.307 282.31 547.141 286.086 547.141C289.367 547.141 292.57 546.516 295.695 545.266C298.82 543.99 301.19 542.635 302.805 541.203V530.539H285.969ZM319.133 525.109C319.133 515.604 321.685 508.169 326.789 502.805C331.893 497.414 338.482 494.719 346.555 494.719C351.841 494.719 356.607 495.982 360.852 498.508C365.096 501.034 368.326 504.562 370.539 509.094C372.779 513.599 373.898 518.716 373.898 524.445C373.898 530.253 372.727 535.448 370.383 540.031C368.039 544.615 364.719 548.091 360.422 550.461C356.125 552.805 351.49 553.977 346.516 553.977C341.125 553.977 336.307 552.674 332.062 550.07C327.818 547.466 324.602 543.911 322.414 539.406C320.227 534.901 319.133 530.135 319.133 525.109ZM326.945 525.227C326.945 532.128 328.794 537.57 332.492 541.555C336.216 545.513 340.878 547.492 346.477 547.492C352.18 547.492 356.867 545.487 360.539 541.477C364.237 537.466 366.086 531.776 366.086 524.406C366.086 519.745 365.292 515.682 363.703 512.219C362.141 508.729 359.836 506.034 356.789 504.133C353.768 502.206 350.37 501.242 346.594 501.242C341.229 501.242 336.607 503.091 332.727 506.789C328.872 510.461 326.945 516.607 326.945 525.227ZM395.227 553L417.219 495.734H425.383L448.82 553H440.188L433.508 535.656H409.562L403.273 553H395.227ZM411.75 529.484H431.164L425.188 513.625C423.365 508.807 422.01 504.849 421.125 501.75C420.396 505.422 419.367 509.068 418.039 512.688L411.75 529.484ZM454.797 553V495.734H462.57L492.648 540.695V495.734H499.914V553H492.141L462.062 508V553H454.797ZM512.688 553V495.734H532.414C536.867 495.734 540.266 496.008 542.609 496.555C545.891 497.31 548.69 498.677 551.008 500.656C554.029 503.208 556.281 506.477 557.766 510.461C559.276 514.419 560.031 518.951 560.031 524.055C560.031 528.404 559.523 532.258 558.508 535.617C557.492 538.977 556.19 541.763 554.602 543.977C553.013 546.164 551.268 547.896 549.367 549.172C547.492 550.422 545.214 551.372 542.531 552.023C539.875 552.674 536.815 553 533.352 553H512.688ZM520.266 546.242H532.492C536.268 546.242 539.224 545.891 541.359 545.188C543.521 544.484 545.24 543.495 546.516 542.219C548.312 540.422 549.706 538.013 550.695 534.992C551.711 531.945 552.219 528.26 552.219 523.938C552.219 517.948 551.229 513.352 549.25 510.148C547.297 506.919 544.914 504.758 542.102 503.664C540.07 502.883 536.802 502.492 532.297 502.492H520.266V546.242ZM619.562 530.539V523.82L643.82 523.781V545.031C640.096 548 636.255 550.24 632.297 551.75C628.339 553.234 624.276 553.977 620.109 553.977C614.484 553.977 609.367 552.779 604.758 550.383C600.174 547.961 596.711 544.471 594.367 539.914C592.023 535.357 590.852 530.266 590.852 524.641C590.852 519.068 592.01 513.872 594.328 509.055C596.672 504.211 600.031 500.617 604.406 498.273C608.781 495.93 613.82 494.758 619.523 494.758C623.664 494.758 627.401 495.435 630.734 496.789C634.094 498.117 636.724 499.979 638.625 502.375C640.526 504.771 641.971 507.896 642.961 511.75L636.125 513.625C635.266 510.708 634.198 508.417 632.922 506.75C631.646 505.083 629.823 503.755 627.453 502.766C625.083 501.75 622.453 501.242 619.562 501.242C616.099 501.242 613.104 501.776 610.578 502.844C608.052 503.885 606.008 505.266 604.445 506.984C602.909 508.703 601.711 510.591 600.852 512.648C599.393 516.19 598.664 520.031 598.664 524.172C598.664 529.276 599.536 533.547 601.281 536.984C603.052 540.422 605.617 542.974 608.977 544.641C612.336 546.307 615.904 547.141 619.68 547.141C622.961 547.141 626.164 546.516 629.289 545.266C632.414 543.99 634.784 542.635 636.398 541.203V530.539H619.562ZM655.188 553V495.734H696.594V502.492H662.766V520.031H694.445V526.75H662.766V546.242H697.922V553H655.188ZM722.961 553V502.492H704.094V495.734H749.484V502.492H730.539V553H722.961ZM779.367 553V495.734H786.945V553H779.367ZM814.914 553V502.492H796.047V495.734H841.438V502.492H822.492V553H814.914Z" fill="black"/>
</svg>
