<svg width="764" height="745" viewBox="0 0 764 745" fill="none" xmlns="http://www.w3.org/2000/svg">
<g filter="url(#filter0_d)">
<path d="M424.896 156.719C424.865 156.696 424.826 156.687 424.788 156.697V156.697C424.732 156.711 424.693 156.761 424.693 156.818V354.647C424.693 359.065 428.275 362.647 432.693 362.647H733.413C733.63 362.647 733.791 362.446 733.743 362.234V362.234C733.717 362.119 733.632 362.025 733.52 361.988L732.483 361.642C731.926 361.456 731.463 361.063 731.189 360.544L731.137 360.445C731.083 360.342 731.021 360.243 730.951 360.15L730.908 360.093C730.493 359.54 730.382 358.817 730.612 358.165V358.165L731.048 356.836C731.079 356.745 731.129 356.661 731.195 356.591L731.587 356.178C731.823 355.93 731.655 355.52 731.313 355.508V355.508C731.156 355.503 731.018 355.406 730.959 355.261L730.487 354.101C730.391 353.863 730.253 353.644 730.079 353.455L729.533 352.858C729.274 352.574 729.211 352.162 729.373 351.814V351.814C729.582 351.364 729.411 350.829 728.979 350.584L728.179 350.129L727.251 349.522C726.902 349.294 726.729 348.875 726.815 348.467V348.467C726.872 348.196 727.038 347.96 727.273 347.815L727.849 347.46C727.988 347.374 728.098 347.247 728.163 347.097V347.097C728.368 346.623 728.077 346.082 727.569 345.991L727.245 345.934C727.185 345.923 727.126 345.907 727.069 345.886L726.355 345.627C726.181 345.563 726.001 345.518 725.817 345.492L725.435 345.439C724.898 345.363 724.421 345.053 724.134 344.592V344.592C724.012 344.396 723.855 344.225 723.669 344.087L723.428 343.908C723.101 343.666 722.911 343.281 722.919 342.874V342.874C722.924 342.605 722.842 342.342 722.687 342.122L722.173 341.398C722.046 341.22 721.967 341.013 721.942 340.796V340.796C721.893 340.374 722.055 339.955 722.374 339.674L722.484 339.577C722.804 339.296 722.996 338.897 723.018 338.472L723.027 338.289C723.037 338.096 723.019 337.902 722.974 337.714L722.963 337.668C722.839 337.156 722.892 336.617 723.113 336.138L723.235 335.873V335.873C723.559 335.2 723.631 334.433 723.437 333.711L723.372 333.47C723.294 333.18 723.182 332.899 723.037 332.636L722.579 331.797L722.282 331.325C722.06 330.973 722.049 330.527 722.253 330.165V330.165C722.433 329.843 722.446 329.454 722.288 329.122L722.093 328.711C722.018 328.554 721.923 328.407 721.811 328.274L721.015 327.334L720.521 326.76C720.227 326.417 720.047 325.991 720.008 325.541V325.541C719.984 325.271 719.91 325.007 719.788 324.764L719.573 324.333C719.493 324.173 719.454 323.995 719.461 323.815L719.462 323.776C719.478 323.33 719.202 322.926 718.781 322.778V322.778C718.529 322.689 718.322 322.506 718.205 322.266L718.024 321.899C717.891 321.628 717.624 321.448 717.322 321.427V321.427C716.966 321.401 716.663 321.155 716.565 320.811L716.55 320.756C716.479 320.504 716.305 320.294 716.071 320.177L715.434 319.858V319.858C714.678 319.455 714.053 318.842 713.635 318.094L713.271 317.443L712.9 316.652C712.749 316.331 712.56 316.029 712.338 315.753L711.977 315.306C711.85 315.148 711.693 315.017 711.515 314.921V314.921C711.026 314.653 710.719 314.142 710.712 313.585L710.703 312.827L709.953 212.834C709.951 212.609 709.893 212.387 709.785 212.189L709.744 212.116C709.441 211.566 708.78 211.322 708.193 211.544V211.544L707.02 212.034C706.94 212.068 706.867 212.115 706.803 212.174L706.565 212.393C706.262 212.674 705.769 212.53 705.664 212.13V212.13C705.616 211.946 705.476 211.8 705.293 211.745L704.821 211.601C704.613 211.538 704.422 211.429 704.263 211.281L704.242 211.261C703.767 210.821 703.061 210.742 702.5 211.066L702.368 211.143C702.351 211.153 702.333 211.16 702.314 211.166L702.271 211.178C702.031 211.246 702.052 211.592 702.298 211.631V211.631C702.404 211.648 702.484 211.734 702.493 211.841L702.51 212.025C702.54 212.367 702.203 212.625 701.88 212.506L701.71 212.444C701.526 212.376 701.321 212.405 701.163 212.521L700.712 212.85C700.524 212.988 700.28 213.025 700.059 212.95V212.95C699.687 212.824 699.486 212.422 699.608 212.049L699.736 211.66V211.66C699.828 211.244 699.395 210.908 699.015 211.102V211.102C698.919 211.15 698.841 211.229 698.793 211.325L698.343 212.225C698.272 212.366 698.134 212.461 697.977 212.476L697.77 212.495C697.517 212.519 697.331 212.262 697.432 212.029V212.029C697.547 211.765 697.297 211.489 697.023 211.577L696.833 211.638C696.715 211.676 696.619 211.765 696.571 211.88L696.44 212.198C696.216 212.741 695.623 213.032 695.056 212.878L694.908 212.838L694.491 212.709C694.122 212.595 693.725 212.772 693.563 213.122V213.122C693.441 213.387 693.18 213.559 692.889 213.57L692.705 213.576C692.422 213.586 692.146 213.483 691.939 213.29L691.377 212.768C691.26 212.66 691.225 212.489 691.289 212.344V212.344C691.42 212.049 691.14 211.739 690.833 211.837L690.822 211.841C690.658 211.894 690.48 211.83 690.387 211.685L689.901 210.931C689.729 210.664 689.479 210.456 689.184 210.336L688.584 210.092C688.526 210.068 688.471 210.041 688.418 210.009V210.009C687.889 209.693 687.676 209.035 687.919 208.469L687.976 208.337L688.114 208.078C688.295 207.738 687.969 207.35 687.603 207.47V207.47C687.569 207.482 687.536 207.497 687.506 207.516L687.106 207.771C686.561 208.118 685.943 208.334 685.3 208.403L685.196 208.414L684.696 208.468C684.419 208.498 684.245 208.177 684.422 207.961V207.961C684.583 207.764 684.452 207.467 684.198 207.453L683.767 207.429L682.693 207.479C682.412 207.492 682.205 207.217 682.297 206.95L682.406 206.631C682.467 206.456 682.303 206.287 682.126 206.341V206.341C681.891 206.412 681.725 206.111 681.912 205.952V205.952C682.083 205.806 681.96 205.527 681.737 205.555L681.605 205.572C681.499 205.585 681.395 205.534 681.342 205.442L681.187 205.177C681.077 204.989 680.788 205.075 680.799 205.293V205.293C680.806 205.427 680.686 205.533 680.554 205.509L679.731 205.362L679.181 205.24C678.868 205.17 678.54 205.238 678.28 205.427L677.867 205.727C677.768 205.799 677.635 205.807 677.527 205.747V205.747C677.254 205.596 677.341 205.182 677.653 205.154L677.686 205.151C677.824 205.139 677.939 205.041 677.974 204.907L678.031 204.688C678.154 204.214 677.729 203.779 677.252 203.892L677.163 203.913L676.027 204.324C675.86 204.384 675.681 204.402 675.506 204.376L674.626 204.247C674.297 204.198 674.121 203.832 674.289 203.545L674.375 203.397C674.493 203.194 674.379 202.935 674.15 202.885L674.011 202.855C673.727 202.793 673.53 203.13 673.723 203.347V203.347C673.878 203.52 673.786 203.796 673.558 203.841L673.259 203.9C673.094 203.932 672.924 203.874 672.813 203.748L672.242 203.098C672.096 202.933 672.047 202.703 672.111 202.492V202.492C672.227 202.107 671.964 201.712 671.565 201.671L671.351 201.65C671.249 201.639 671.15 201.61 671.059 201.563L670.637 201.344C670.349 201.195 670.236 200.84 670.386 200.552V200.552L669.506 200.86C669.178 200.975 668.834 200.736 668.828 200.389L668.827 200.352C668.824 200.179 668.722 200.023 668.565 199.951L668.469 199.906C668.187 199.776 667.873 200.009 667.916 200.316V200.316C667.946 200.539 667.784 200.742 667.559 200.76L667.044 200.803C666.893 200.816 666.741 200.789 666.603 200.726L665.834 200.374C665.607 200.269 665.505 200.001 665.607 199.772V199.772C665.745 199.464 665.512 199.117 665.174 199.13L664.977 199.137C664.877 199.14 664.778 199.118 664.689 199.072L664.161 198.797C663.936 198.681 663.736 198.521 663.573 198.327L663.33 198.04C663.047 197.704 662.958 197.246 663.094 196.829L663.231 196.413C663.25 196.355 663.244 196.291 663.216 196.236L663.088 195.991C662.994 195.812 662.721 195.899 662.749 196.1V196.1C662.764 196.207 662.682 196.304 662.573 196.305L662.124 196.312C661.768 196.317 661.493 196.002 661.545 195.65L661.572 195.468C661.622 195.13 661.434 194.803 661.117 194.678L660.971 194.619C660.698 194.511 660.492 194.281 660.415 193.999L660.342 193.733C660.216 193.273 659.69 193.056 659.276 193.292V193.292C659.108 193.389 658.907 193.414 658.719 193.362L657.757 193.096L657.113 192.952C656.394 192.791 655.823 192.243 655.633 191.531V191.531L655.428 190.597C655.377 190.366 655.195 190.186 654.963 190.138L654.871 190.119C654.575 190.058 654.29 190.263 654.255 190.564L654.252 190.585C654.202 191.009 653.682 191.184 653.386 190.876L653.319 190.807C653.213 190.696 653.187 190.531 653.254 190.393L653.262 190.375C653.412 190.066 653.085 189.744 652.778 189.897V189.897C652.668 189.952 652.538 189.947 652.433 189.884L651.855 189.537C651.626 189.399 651.547 189.104 651.677 188.87V188.87C651.839 188.579 651.674 188.214 651.349 188.144L651.09 188.088C651.042 188.078 650.996 188.063 650.952 188.043L649.261 187.281L648.36 186.905C647.749 186.651 647.063 186.643 646.446 186.883L646.353 186.919C646.068 187.03 645.811 187.202 645.599 187.423V187.423C645.189 187.849 644.977 188.429 645.015 189.019L645.055 189.638C645.066 189.801 645.026 189.964 644.943 190.105L644.578 190.72C644.462 190.915 644.187 190.933 644.046 190.755L643.949 190.63C643.769 190.402 643.403 190.562 643.449 190.849V190.849C643.461 190.927 643.441 191.006 643.393 191.067L643.073 191.478C642.788 191.843 642.282 191.95 641.874 191.732V191.732C641.635 191.604 641.354 191.584 641.099 191.676L640.224 191.994L639.509 192.26C639.09 192.416 638.642 192.474 638.198 192.429L638.162 192.426C637.866 192.396 637.566 192.415 637.276 192.483V192.483C636.804 192.593 636.312 192.575 635.85 192.431L635.597 192.352C635.413 192.294 635.222 192.264 635.029 192.261L634.334 192.251C634.071 192.248 633.829 192.108 633.695 191.881V191.881C633.475 191.511 632.992 191.399 632.632 191.634L632.531 191.701C632.373 191.804 632.187 191.853 631.999 191.841L631.457 191.807C631.222 191.793 631.03 191.614 630.999 191.381V191.381C630.947 190.994 630.489 190.818 630.191 191.07L629.963 191.263C629.758 191.437 629.468 191.468 629.231 191.343L629.106 191.276C628.799 191.114 628.618 190.785 628.646 190.44L628.687 189.945C628.706 189.704 628.672 189.463 628.586 189.237L628.546 189.132C628.364 188.656 627.938 188.311 627.435 188.229V188.229C627.274 188.203 627.118 188.148 626.976 188.068V188.068C626.448 187.772 625.789 187.85 625.345 188.261L625.219 188.377C625.105 188.483 625.007 188.604 624.927 188.738L624.55 189.369C624.319 189.756 623.858 189.943 623.423 189.825V189.825C623.12 189.744 622.797 189.807 622.548 189.998L621.839 190.54C621.7 190.646 621.55 190.739 621.392 190.815V190.815C620.8 191.101 620.122 191.152 619.494 190.958L619.409 190.932L618.692 190.73C618.291 190.617 617.861 190.741 617.582 191.049V191.049C617.295 191.366 617.218 191.821 617.386 192.215L617.447 192.359C617.518 192.524 617.536 192.707 617.499 192.882V192.882C617.41 193.314 617.014 193.613 616.575 193.581L616.315 193.562C616.115 193.547 615.923 193.482 615.755 193.373L615.569 193.251C615.187 193 614.698 192.979 614.295 193.195L614.197 193.248C614.009 193.349 613.861 193.512 613.778 193.71V193.71C613.574 194.197 613.005 194.418 612.525 194.197L612.4 194.139L611.396 193.521L609.87 192.458L608.949 191.971C608.348 191.653 607.603 191.88 607.282 192.48V192.48C607.1 192.819 606.77 193.054 606.39 193.116L605.875 193.2C605.671 193.233 605.463 193.212 605.27 193.139L605.039 193.051C604.687 192.917 604.289 193.033 604.063 193.334L603.97 193.458C603.75 193.752 603.336 193.819 603.034 193.61V193.61C602.74 193.407 602.339 193.464 602.114 193.741L601.938 193.959C601.68 194.277 601.252 194.402 600.864 194.274L600.329 194.099C600.254 194.074 600.176 194.057 600.096 194.048L599.073 193.934C598.858 193.91 598.676 194.094 598.701 194.309V194.309C598.731 194.563 598.478 194.757 598.241 194.662L597.442 194.342C597.298 194.285 597.142 194.268 596.989 194.293L596.82 194.321C596.336 194.4 595.923 194.717 595.721 195.164L595.536 195.575C595.515 195.621 595.48 195.658 595.435 195.681L595.175 195.816C595.014 195.899 595.086 196.144 595.267 196.128V196.128C595.37 196.118 595.456 196.205 595.447 196.308L595.332 197.531C595.318 197.676 595.277 197.818 595.212 197.949L594.831 198.711C594.591 199.191 594.2 199.579 593.718 199.816V199.816C593.507 199.92 593.281 199.993 593.049 200.032L592.933 200.052C592.139 200.188 591.323 200.025 590.642 199.595L590.29 199.374L589.671 199.092C589.26 198.905 588.784 198.928 588.392 199.153V199.153C588.121 199.308 587.909 199.551 587.791 199.84L587.674 200.13C587.565 200.396 587.508 200.68 587.504 200.968L587.495 201.561C587.492 201.776 587.461 201.99 587.403 202.197V202.197C587.259 202.71 586.955 203.162 586.534 203.489L586.25 203.709C586.126 203.806 585.984 203.878 585.833 203.922V203.922C585.242 204.095 584.612 203.813 584.348 203.257L584.247 203.044V203.044C583.914 202.378 583.484 201.765 582.972 201.225L582.663 200.9L581.679 199.625L581.07 198.798C580.806 198.439 580.402 198.21 579.958 198.167V198.167C579.755 198.147 579.551 198.168 579.355 198.227L578.869 198.374C578.708 198.422 578.544 198.456 578.378 198.475L577.716 198.549C577.212 198.606 576.712 198.407 576.384 198.019V198.019C576.173 197.77 576.048 197.459 576.028 197.133L576.006 196.792C575.99 196.547 575.909 196.312 575.77 196.11L575.719 196.037C575.416 195.596 574.863 195.403 574.351 195.557V195.557C574.242 195.59 574.129 195.608 574.015 195.61L573.83 195.613C573.284 195.621 572.749 195.455 572.305 195.137L571.908 194.853L571.388 194.481C570.649 193.952 570.599 192.871 571.286 192.276L571.434 192.149C571.578 192.024 571.676 191.854 571.712 191.666V191.666C571.812 191.132 571.39 190.644 570.847 190.665L570.293 190.687C570.085 190.696 569.879 190.654 569.691 190.565L569.087 190.279C568.263 189.89 567.286 190.322 567.021 191.193V191.193C566.984 191.315 566.962 191.44 566.957 191.567L566.941 191.952C566.919 192.487 566.763 193.008 566.489 193.468L566.42 193.585C566.039 194.225 565.424 194.694 564.706 194.892V194.892L563.917 195.093C563.686 195.151 563.445 195.159 563.211 195.115V195.115C562.611 195.002 562.123 194.564 561.947 193.979L561.942 193.961C561.892 193.797 561.818 193.642 561.721 193.5L561.32 192.916C561.076 192.559 560.706 192.307 560.285 192.21L560.25 192.202C560.043 192.154 559.828 192.149 559.62 192.188L558.971 192.308C558.674 192.362 558.449 192.607 558.42 192.908V192.908C558.391 193.203 558.174 193.446 557.884 193.506L557.777 193.528C557.509 193.584 557.231 193.503 557.035 193.313L556.481 192.776C556.239 192.541 556.051 192.255 555.933 191.939L555.71 191.345C555.516 190.828 555.408 190.284 555.389 189.733L555.379 189.464L555.203 188.301C555.154 187.976 555.008 187.674 554.783 187.436V187.436C554.254 186.874 553.402 186.765 552.749 187.176L552.367 187.416L551.542 187.836C551.348 187.934 551.116 187.918 550.938 187.795L550.848 187.732C550.499 187.49 550.02 187.735 550.013 188.16V188.16C550.012 188.217 550.02 188.275 550.037 188.329L550.456 189.66C550.532 189.901 550.571 190.153 550.571 190.406V190.406C550.571 190.851 550.451 191.289 550.224 191.672L550.041 191.98C549.944 192.144 549.835 192.3 549.714 192.448L548.845 193.509C548.673 193.719 548.447 193.876 548.19 193.964L547.858 194.078C547.481 194.207 547.063 194.088 546.811 193.779L546.555 193.465C546.321 193.179 545.887 193.168 545.639 193.442V193.442C545.34 193.773 545.49 194.303 545.919 194.427L546.512 194.599C546.763 194.672 546.953 194.88 547.002 195.137V195.137C547.067 195.474 546.877 195.808 546.554 195.925L545.47 196.315C545.001 196.484 544.672 196.909 544.627 197.406V197.406C544.612 197.57 544.629 197.736 544.677 197.894L544.971 198.863C545.073 199.2 545.108 199.554 545.072 199.905L545.065 199.971C545.017 200.451 544.827 200.905 544.521 201.278L544.489 201.316C544.117 201.769 543.586 202.063 543.005 202.141V202.141C542.647 202.189 542.284 202.152 541.942 202.034L541.875 202.011C541.523 201.89 541.201 201.695 540.931 201.44L540.847 201.361C540.499 201.032 540.23 200.628 540.061 200.18L539.932 199.837L539.526 198.833L539.14 197.828L538.982 197.539C538.712 197.043 538.644 196.461 538.792 195.916L538.908 195.492C539.017 195.09 539.311 194.764 539.699 194.613V194.613C540.265 194.391 540.607 193.81 540.523 193.207L540.492 192.98L540.144 191.705L539.802 190.808C539.659 190.434 539.417 190.106 539.102 189.86L538.962 189.75C538.677 189.527 538.321 189.402 537.958 189.396V189.396C537.6 189.39 537.246 189.501 536.957 189.712V189.712C536.599 189.973 536.363 190.368 536.3 190.806L536.235 191.263C536.202 191.49 536.116 191.705 535.983 191.892L535.922 191.977C535.525 192.533 534.769 192.692 534.181 192.344L534.146 192.323C534.103 192.297 534.062 192.268 534.023 192.234L533.58 191.852C533.25 191.566 532.736 191.765 532.683 192.198V192.198C532.653 192.443 532.463 192.637 532.219 192.672L531.675 192.749C531.608 192.759 531.546 192.71 531.54 192.643V192.643C531.527 192.504 531.327 192.497 531.305 192.635L531.266 192.879C531.263 192.894 531.258 192.91 531.251 192.924L530.714 193.958C530.393 194.575 529.874 195.066 529.239 195.351V195.351C528.891 195.507 528.518 195.598 528.137 195.618L527.612 195.645H527.024C526.686 195.645 526.352 195.574 526.044 195.437L525.808 195.331C525.346 195.125 524.991 194.735 524.829 194.256V194.256C524.693 193.855 524.702 193.42 524.853 193.026L525.026 192.574C525.115 192.344 525.165 192.1 525.174 191.854V191.854C525.19 191.428 525.085 191.007 524.871 190.639L524.863 190.624C524.629 190.22 524.278 189.897 523.857 189.697L523.726 189.635C522.961 189.27 522.071 189.275 521.309 189.648L521.108 189.747C520.812 189.892 520.495 189.991 520.169 190.041L519.117 190.201C518.963 190.225 518.806 190.227 518.651 190.207L518.468 190.184C517.974 190.121 517.553 189.795 517.368 189.333V189.333C517.286 189.127 517.255 188.904 517.278 188.684L517.346 188.027C517.355 187.942 517.37 187.858 517.393 187.775V187.775C517.549 187.2 517.367 186.586 516.922 186.189L516.706 185.996C516.626 185.926 516.542 185.861 516.452 185.804L515.7 185.32C515.391 185.121 515.058 184.963 514.709 184.85L513.806 184.558C513.42 184.433 513.002 184.45 512.627 184.607V184.607C512.231 184.774 511.912 185.084 511.736 185.476L511.543 185.906C511.456 186.101 511.347 186.285 511.219 186.456L511.142 186.559C510.712 187.133 510.136 187.582 509.475 187.861L509.384 187.899L508.671 188.161C508.393 188.263 508.185 188.497 508.116 188.785L508.045 189.087C507.992 189.308 507.795 189.464 507.568 189.464V189.464C507.253 189.464 507.02 189.758 507.092 190.065L507.131 190.23C507.196 190.507 507.065 190.792 506.814 190.925L506.293 191.198C506.166 191.265 506.05 191.351 505.95 191.454L505.503 191.908C505.208 192.209 504.879 192.475 504.522 192.7L503.985 193.039C503.864 193.115 503.738 193.181 503.606 193.237V193.237C503.024 193.482 502.373 193.507 501.773 193.307L501.671 193.273C501.472 193.206 501.28 193.118 501.099 193.01L500.212 192.477L499.411 192.041C499.074 191.858 498.7 191.756 498.317 191.745L498.079 191.737C497.794 191.729 497.517 191.643 497.277 191.49L497.022 191.327C496.713 191.13 496.53 190.785 496.539 190.419L496.548 190.076C496.557 189.758 496.797 189.492 497.113 189.453V189.453C497.421 189.414 497.658 189.162 497.677 188.853L497.719 188.195C497.731 187.988 497.6 187.799 497.401 187.739V187.739C497.085 187.643 496.978 187.25 497.202 187.007L497.5 186.685C497.606 186.57 497.672 186.424 497.688 186.269L497.814 185.046C497.853 184.664 497.714 184.286 497.437 184.019V184.019C497.082 183.677 496.558 183.576 496.1 183.763L495.953 183.823C495.858 183.861 495.759 183.89 495.658 183.909L494.764 184.072C494.126 184.189 493.474 184.21 492.83 184.136L492.502 184.098C492.364 184.082 492.229 184.055 492.095 184.017L491.613 183.879C491.109 183.735 490.71 183.352 490.544 182.856L490.504 182.735C490.463 182.612 490.397 182.498 490.311 182.401L489.893 181.929C489.707 181.72 489.759 181.392 490.001 181.251V181.251C490.27 181.094 490.298 180.716 490.056 180.521L489.339 179.944C489.165 179.803 489.038 179.612 488.977 179.396L488.939 179.259C488.804 178.778 488.912 178.262 489.23 177.876L489.492 177.559C489.584 177.447 489.665 177.326 489.735 177.198L489.756 177.158C490.089 176.541 490.101 175.8 489.787 175.173L489.736 175.07C489.704 175.007 489.68 174.941 489.662 174.874V174.874C489.502 174.272 488.85 173.949 488.275 174.185L488.1 174.257C487.938 174.323 487.793 174.424 487.674 174.552L487.089 175.187C486.426 175.906 485.433 176.223 484.477 176.021L484.382 176.001C484.074 175.936 483.782 175.809 483.525 175.627L483.488 175.6C482.962 175.228 482.301 175.104 481.676 175.26V175.26C481.458 175.315 481.233 175.336 481.008 175.322L480.357 175.283C480.155 175.271 479.954 175.242 479.757 175.196L479.736 175.192C479.233 175.075 478.762 174.848 478.356 174.528L478.233 174.431C477.819 174.105 477.325 173.896 476.803 173.826L476.503 173.786C475.739 173.684 474.974 173.962 474.454 174.531V174.531C474.326 174.672 474.214 174.829 474.123 174.997L473.797 175.599C473.694 175.788 473.608 175.986 473.538 176.19L473.302 176.885C473.113 177.442 472.702 177.895 472.167 178.137V178.137C472.044 178.193 471.926 178.26 471.816 178.338L471.142 178.815C470.956 178.947 470.756 179.057 470.545 179.144L470.318 179.237C469.881 179.418 469.398 179.458 468.936 179.351V179.351C468.578 179.269 468.244 179.1 467.965 178.861L467.539 178.495C467.296 178.287 467.076 178.054 466.882 177.8L466.112 176.791L465.06 175.425C464.899 175.216 464.721 175.021 464.527 174.841V174.841C463.872 174.235 463.059 173.827 462.181 173.665L461.748 173.585L460.826 173.534C460.053 173.492 459.292 173.742 458.695 174.235V174.235C458.291 174.569 457.809 174.794 457.294 174.889L457.269 174.894C457.114 174.922 456.957 174.94 456.8 174.945L456.296 174.962C456.046 174.971 455.801 175.035 455.579 175.15L455.547 175.166C455.014 175.441 454.372 175.401 453.876 175.062V175.062C453.719 174.954 453.543 174.874 453.358 174.827L452.488 174.604C452.153 174.518 451.846 174.347 451.598 174.107V174.107C451.177 173.702 450.6 173.501 450.019 173.557L449.917 173.567C449.798 173.579 449.679 173.6 449.563 173.631L449.23 173.719C448.513 173.908 447.751 173.671 447.269 173.108V173.108C447.101 172.913 446.896 172.753 446.666 172.637L446.289 172.449C445.977 172.293 445.69 172.09 445.438 171.848V171.848C445.016 171.441 444.497 171.149 443.931 170.998L443.073 170.77C442.825 170.704 442.606 170.555 442.453 170.349V170.349C442.139 169.925 441.575 169.773 441.091 169.983L440.759 170.127L439.542 170.474L439.207 170.594C438.732 170.764 438.208 170.722 437.766 170.481V170.481C437.549 170.362 437.31 170.29 437.064 170.27L436.656 170.236C436.241 170.202 435.824 170.249 435.427 170.374L435.126 170.469C435.033 170.498 434.935 170.514 434.838 170.516L434.377 170.525C434.148 170.529 433.948 170.369 433.903 170.144V170.144C433.838 169.819 433.468 169.66 433.187 169.837L432.795 170.085C432.615 170.198 432.397 170.235 432.19 170.186L431.38 169.995C430.89 169.88 430.544 169.443 430.544 168.939V168.939C430.544 168.843 430.531 168.747 430.506 168.654L430.298 167.893C430.231 167.644 430.194 167.389 430.19 167.132V167.132C430.181 166.662 430.067 166.2 429.854 165.781L429.843 165.761C429.681 165.441 429.573 165.097 429.526 164.741V164.741C429.484 164.431 429.488 164.116 429.538 163.807L429.656 163.077C429.669 162.999 429.673 162.92 429.67 162.841L429.647 162.342C429.63 161.989 429.333 161.714 428.979 161.727V161.727C428.703 161.736 428.451 161.569 428.353 161.31L428.211 160.933C428.158 160.792 428.078 160.661 427.977 160.549L427.14 159.626C427.054 159.531 426.959 159.444 426.856 159.368L426.382 159.014C426.113 158.814 425.971 158.486 426.007 158.153V158.153C426.043 157.827 425.907 157.505 425.647 157.304L424.896 156.719ZM670.386 200.552V200.552C670.507 200.516 670.605 200.425 670.651 200.306L670.965 199.49L670.386 200.552Z" fill="white"/>
<path d="M424.693 362.647V649.823H424.809L426.257 651.272L426.605 653.069L427.686 654.846L427.821 657.628L429.501 658.999L429.443 661.008L429.965 663.462L431.181 665.818L431.76 669.759L431.799 671.324L433.054 671.865L434.425 672.599L435.178 673.661L435.68 674.878L435.545 676.076L435.313 677.081L434.695 678.085L435.448 679.09L436.414 680.442L437.901 680.133L439.136 679.379L440.681 680.635L442.284 680.133L443.346 680.577L443.269 681.697L444.408 681.987L445.026 680.732L445.721 682.065L446.918 683.011L447.942 682.683L449.37 682.915L450.432 682.122L451.552 682.354L451.977 683.533L452.325 684.653L453.329 685.117L454.507 684.788L455.105 685.851L454.893 687.126L456.167 687.512L457.21 687.995L456.148 688.555L457.171 688.961L458.407 689.56L458.484 690.564L459.682 690.931L460.898 689.869L462.192 689.792L463.331 689.502L464.432 690.564L464.876 691.569L465.668 690.429L466.17 691.608L467.29 691.492L467.888 692.709L469.24 693.153L469.105 692.013L470.205 691.569L471.345 692.013L471.132 693.211L472.175 693.829L473.411 695.104L474.608 696.108L475.824 695.935L476.906 696.34L477.06 697.345L477.852 698.62L479.088 699.489L479.493 698.465L480.845 698.678L479.725 699.663L480.787 700.358L481.772 701.633L483.722 701.827L484.842 702.85L485.942 701.691L486.638 702.831L487.661 702.754L488.8 702.136L490.171 702.522L491.233 702.425L490.963 703.604L491.986 703.314L493.183 703.642L493.531 702.29L494.651 702.657L495.655 702.483L496.659 702.541L497.972 702.29L499.053 702.194L500.135 702.657L501.467 702.001L502.838 701.769L503.495 702.947L504.788 702.696L505.792 702.541L506.797 703.102L507.144 704.125L508.148 703.469L508.399 704.628L509.732 704.241L511.392 703.99L512.416 704.589L513.69 703.855L513.381 705.072L514.868 704.744L514.54 705.845L515.621 705.961L515.215 706.984L516.258 707.757L517.417 708.858L518.479 709.361L518.015 710.404L519.811 710.5L520.892 711.582L521.047 712.703L521.337 713.765L522.63 712.934L522.92 714.132L523.943 714.402L524.947 713.92L525.546 715.001L526.009 716.16L527.535 715.832L528.327 716.972L529.427 716.798L529.292 715.716L530.2 714.673L529.813 713.475L529.331 712.451L530.393 711.601L531.59 711.176L532.594 710.809L533.617 710.693L534.679 710.558V709.477L536.398 709.65L537.479 709.013L538.56 709.071L539.565 709.052L540.646 708.936L541.727 709.245L541.766 708.24L544.778 708.047L544.624 703.527L544.875 702.02L544.604 700.571L543.851 699.509L543.716 696.843L543.349 693.405L542.924 690.121L541.225 681.833L539.7 675.265L538.097 668.678L537.518 667.306L536.05 663.114L534.351 656.469L533.386 651.833L532.652 646.694L532.285 642.039L532.15 640.358V637.692L532.343 633.848L532.671 629.946L532.903 628.207L533.598 624.672L534.042 622.895L535.761 616.501L536.127 615.4L538.869 608.349L540.762 603.906L542.924 599.192L547.018 592.025L549.258 589.63L550.59 588.529L551.942 583.854L553.081 582.154L554.703 580.01L556.537 577.672L558.217 575.683L563.547 570.505L569.301 565.56L571.715 563.764L575.268 561.272L581.002 558.161L582.644 557.447L583.744 556.713L585.405 554.414L585.772 553.216L586.718 551.999L588.166 551.651L589.634 550.357L590.116 549.063L591.352 548.174L594.249 546.184L600.041 543.055L604.154 540.949L610.971 537.646L616.261 534.864L617.768 534.014L629.546 526.712L631.728 525.727L635.745 523.081L636.768 523.061L638.042 522.791L639.375 522.289L641.074 521.207L641.73 520.125L642.773 518.773L644.839 517.401L646.23 516.242L647.369 515.18L648.759 513.731L651.752 510.196L652.814 509.423L653.76 507.259L653.895 505.926L658.588 503.57L660.576 502.217L663.396 499.977L667.315 497.427L670.984 495.263L672.703 493.428L674.209 491.94L675.348 492.288L676.777 492.037L678.071 490.781L679.055 488.502L678.824 486.995L677.646 485.392L679.017 484.426L685.852 480.852L690.216 478.804L692.881 477.723L706.224 471.483L711.206 469.571H718.157L719.837 469.802L720.764 470.865L721.942 471.406L723.139 471.425L722.366 467.31L721.884 465.321L719.895 462.211L718.833 461.09L718.562 459.989L717.037 458.811L716.96 457.516L717.732 456.357L719.238 455.16L720.918 453.943L722.27 451.972L722.984 450.407L723.177 449.306L723.737 447.529L724.548 445.81L725.707 444.844L727.136 443.666L727.329 442.642L729.202 440.749L728.063 439.686L728.526 438.508L729.318 437.04L729.743 435.803L729.202 434.548L728.796 433.331L728.565 432.172L728.236 430.993L728.738 429.95L728.874 428.868L728.932 427.786L729.106 426.724L728.333 425.719L727.136 425.005L726.306 423.788L726.132 422.706L726.595 421.566L726.364 420.33L726.885 419.171L727.812 418.07L727.947 416.949L729.144 416.698L729.26 415.694L728.681 414.38L728.816 413.317L728.719 412.178L728.352 411.057L727.29 409.976L727.657 408.971L727.85 407.58L729.163 406.634L730.187 406.402L730.283 405.339L730.187 404.238L730.303 403.195L730.979 402.094L732.002 401.321L733.103 400.8L733.701 399.737L733.914 398.539L734.319 397.38L734.357 396.318L734.782 395.294L735.728 394.212L736.192 392.725L736.771 391.682L737.331 390.523L737.138 389.422L736.752 388.34L736.288 387.103L737.312 386.099L737.891 384.978L738.837 383.839L738.586 382.718L737.543 381.907L736.481 381.308L736.269 380.284L736.366 379.125L737.563 379.087L739.05 378.449L739.165 377.02L739.107 376.015L738.47 374.895L737.408 374.605L736.79 373.581L737.756 372.499L738.2 371.495L737.756 370.394L738.18 369.08L738.277 368.81H735.554L735.4 368.925L735.323 368.81L734.377 367.824L734.628 365.989L735.014 364.772L733.932 364.289L733.952 363.092L733.836 362.647H424.693L424.693 362.647Z" fill="#D63432"/>
<path d="M270.932 20.4727L220.863 20.492L220.921 53.1775L220.844 64.5943L220.902 66.7772L220.786 110.319L220.824 117.563L220.747 163.462L220.786 182.471L219.627 249.117L219.647 314.411L100.643 314.43L53.0259 314.275L26.1281 314.778L25.1047 315.956L26.1474 316.748L26.3598 317.772L25.877 318.892L26.5529 319.665L25.3557 320.341L24.8536 321.442L25.2978 322.64L25.7805 323.838L27.0935 324.919L27.8466 326.059L29.2176 326.774L30.6851 327.604L31.0906 328.706L32.0947 330.039L33.2146 330.869L34.3925 330.174L35.9758 330.328L37.2309 330.715L39.2777 332.183L39.5867 333.207L40.8225 334.25L41.6528 336.413L43.3327 339.118L43.6996 340.335L44.1437 341.397L44.5685 343.039L46.4222 344.372L47.6194 347.038L47.9477 348.429L48.9517 349.549L50.2841 350.032L51.3075 351.191L52.6591 351.983L53.9336 352.177L55.7486 353.78L59.5912 354.128L62.3718 355.924L62.7 357.586L63.5689 359.324L65.1137 359.71L65.7895 360.812L66.9674 360.889L67.9908 362.454L68.7632 363.574L69.7286 364.733L71.0417 366.549L71.8334 367.824L72.7409 369.041L73.8995 369.002L75.618 370.818L79.0937 372.364L80.1557 373.329L81.7198 374.894L82.4342 376.034L82.7432 377.425L83.3224 378.796L83.6121 379.936L84.732 380.767L85.9678 381.52L86.9526 381.868L87.8022 383.51L88.9801 384.592L90.0807 385.422L91.1041 386.272L92.4944 386.987L92.784 388.165L92.4172 389.247L93.6143 389.518L94.6957 389.827L95.9315 390.638L96.9742 391.005L97.4762 392.087L98.5382 391.276L99.272 392.357L100.295 393.188L101.512 392.647L102.574 392.435L103.037 393.71L104.157 393.826L104.679 394.907L105.702 394.985L106.011 395.989L107.227 396.066L108.251 396.511L108.656 397.631L109.525 398.713L110.568 399.119L111.012 400.181L112.055 400.084L113.136 400.567L114.179 400.606L115.028 402.093L115.164 403.098L115.357 404.45L116.477 405.184L117.539 405.706L118.543 405.976L119.296 407.039L119.952 408.352L120.396 409.357L120.783 410.535L121.246 411.694L121.536 412.776L121.401 413.8L121.381 415.075L121.883 416.35L122.076 417.354L122.057 418.359L122.25 419.904L123.505 420.716L124.548 421.121L123.93 422.184L124.741 423.304L125.784 424.058L126.286 425.101L127.271 425.449L127.444 426.704L127.85 427.941L129.298 428.539L130.283 429.737L130.476 431.167L130.824 432.306L131.268 433.562L131.287 434.644L131.171 435.861L130.843 436.865L131.055 437.966L131.306 439.357L131.094 440.478L130.418 441.482L130.573 442.738L130.978 443.82L131.132 444.844L131.384 445.906L131.403 446.988L132.079 448.012L131.635 449.132L131.712 450.214L132.851 451.527L133.527 452.686L134.415 453.923L135.303 455.121L134.994 456.164L135.998 457.072L136.558 458.269L137.427 459.332L137.891 460.414L138.238 461.592L138.818 462.674L139.03 463.775L139.107 464.915V465.938L140.111 466.769L140.594 467.774L141.115 468.778L142.177 469.184L143.22 469.956L144.108 470.98L147.275 473.839L147.951 474.902L148.994 475.385L150.712 476.254L151.755 476.215L152.817 476.467L154.535 477.297L155.81 477.896L156.157 479.132L157.335 478.997L157.161 480.021L157.277 481.083L158.861 482.532L159.266 483.595L160.193 484.657L161.216 485.391L162.317 486.183L163.398 486.763L164.596 487.845L165.638 488.617L166.681 489.506L167.84 490.008L169.172 490.549L170.639 490.897L171.779 491.109L173.13 491.785L174.192 491.612L175.235 491.766L176.645 491.998L177.668 492.577L178.865 492.5L179.638 493.505L180.777 493.93L180.661 494.973L180.854 495.997L182.051 495.688L182.727 496.731L183.48 497.793L184.639 498.392L185.662 498.721L186.724 499.049L187.651 500.073L188.655 500.034L189.833 499.59L190.914 500.594L192.363 500.324L193.502 500.923L194.583 501.444L195.24 502.468L196.34 503.55L197.576 504.825L197.499 506.042L198.619 505.887L199.546 506.988L200.53 507.916L201.65 508.263L202.751 508.843L203.91 508.901L204.218 507.761L205.338 508.263L205.377 509.326L206.458 508.901L206.342 510.176L207.52 510.311L207.945 511.895L208.602 510.639L210.301 511.393L211.459 511.2L212.715 511.432L214.221 512.204L215.283 511.857L216.789 511.412L216.77 510.369L217.812 508.669L217.426 507.491L218.488 506.467L218.952 505.424L219.647 504.419L221.018 504.052L221.211 502.932L222.35 501.869L222.717 500.691L223.373 499.686L224.184 498.257L225.478 498.701L226.502 498.102L227.564 497.388L228.626 496.711L229.745 496.441L230.305 495.34L229.263 494.335L228.239 493.408L228.432 492.365L229.243 491.225L228.973 490.221L229.417 489.1L230.074 487.381L231.561 486.57L232.236 485.044L233.298 484.116L232.565 483.112L232.352 482.03L232.738 480.852L233.144 479.654L233.994 478.63L233.627 477.49L234.187 475.81L235.21 474.883L235.249 473.743L236.098 472.526L235.924 471.347L236.948 471.676L237.373 470.633L237.199 469.029L238.242 467.851L239.014 466.827L239.497 465.571L240.018 464.2L240.462 462.828L241.64 462.345L243.32 462.365L244.382 461.553L245.502 461.457L246.95 460.259L247.394 461.495L248.495 461.09L249.634 460.394L249.402 459.216L250.484 459.351L252.009 459.39L253.226 459.602L254.404 459.892L255.562 460.414L256.624 459.989L257.049 458.791L257.261 457.632L257.86 455.816L258.516 454.406L259.521 454.039L260.583 453.092L262.166 453.942L263.17 453.73L264.174 453.942L264.966 454.985L266.337 455.314L267.65 455.14L267.785 456.415L269.117 457.342L270.199 458.037L271.28 458.636L272.419 458.714L273.597 459.023L274.872 459.1L276.03 458.018L277.247 458.037L278.27 458.347L279.39 457.303L280.085 458.404L281.089 458.173L281.437 459.274L282.402 458.269L284.352 458.54L285.434 457.67L286.419 458.578L287.442 458.694L287.075 457.67L288.118 458.192L288.504 459.486L289.894 458.868L291.246 459.602L292.366 459.931L293.428 460.645L294.915 460.703L295.996 460.046L296.923 461.128L297.888 460.046L299.163 459.815L300.862 459.873L301.113 458.231L302.523 457.439L302.735 458.926L303.14 460.781L304.627 460.452L305.94 459.177L307.195 458.926L307.234 459.969L308.161 461.341L310.304 460.607L309.397 461.631L310.401 462.442V463.756L311.772 465.108L312.023 466.576L313.181 467.136L315.537 467.909L315.614 468.933L314.958 471.058L315.035 472.12L316.174 473.067L316.889 471.811L316.908 470.768L317.371 469.242L318.376 469.628L318.279 470.922L318.376 474.033L317.796 475.327L318.144 476.409L319.631 476.273L321.523 476.409L322.662 477.471L323.744 479.229L324.941 479.152L326.37 479.654L327.818 480.079L328.918 481.161L329.652 482.32L329.903 483.556L330.965 484.85L331.236 485.952L332.259 486.647L333.553 487.439L334.788 487.709L335.908 489.042L337.202 490.008L338.438 490.858L339.384 492.365L340.774 493.196L342.01 493.814L343.034 494.277L343.69 495.494L344.289 496.634L344.694 497.639L344.211 499.068L345.1 500.131L346.278 501.309L347.803 502.565L349.213 503.183L349.946 504.381L350.294 505.54L350.352 507.259L350.506 508.341L350.854 509.384L351.105 510.64L351.143 511.876L351.163 512.958L350.989 514.078L351.665 515.121L351.8 516.164L353.016 516.802L354.194 517.613L354.291 518.714L355.256 520.298L355.392 521.747L356.705 522.404L357.419 523.505L357.245 524.915L357.419 526.113L358.442 526.712L358.867 527.89V528.895L358.674 530.595L359.446 532.7L359.485 532.72L360.624 533.434L362.188 534.091L362.034 535.405L363.038 536.757L364.814 538.109L364.061 539.732L364.66 541.026L365.317 542.089L366.726 542.494L368.02 542.939L367.711 543.943L366.436 544.677L367.344 545.72L368.058 546.783L368.097 547.807L367.421 549.41L367.846 550.569L369.179 552.366L369.912 553.872L370.743 555.012L370.8 556.036L371.032 558.026L371.882 559.359L373.04 560.421L374.604 560.885L374.798 562.276L375.126 563.28L376.342 563.57L377.713 564.729H378.756L379.934 565.54L381.865 566.255L382.541 567.82L383.429 569.095L383.931 570.544L385.263 571.2L385.572 572.224L385.746 573.287L386.113 574.504L386.634 575.605L387.677 576.397L389.164 576.803L390.129 577.826L389.762 579.024L390.477 580.454L391.886 581.439L392.215 582.694L391.655 583.854L392.234 585.109L393.199 586.288L393.315 587.93L393.528 589.127L394.899 590.151L395.536 591.194L396.617 590.479L397.023 591.465L397.525 592.971L398.934 593.203L399.629 594.517L401 596.255L401.599 597.511L402.815 598.207L403.916 597.975L405.055 598.709L405.017 599.81L406.098 600.08L407.353 599.366L408.55 599.308L409.439 600.621L409.381 601.684L410.674 600.892L411.698 602.379L412.76 603.635L412.644 604.891L412.451 606.088L412.277 607.151L412.238 608.58L413.532 608.348L414.671 609.121L414.44 610.744L413.899 612.366L414.343 614.144L414.054 615.419L413.706 616.655L413.243 617.891L413.165 619.224L411.949 619.881L412.509 621.175L413.609 621.04L414.343 622.103L414.691 624.054L416.255 623.783L416.853 625.56L416.776 626.739L417.317 627.84L417.664 629.521L417.046 630.95L417.394 632.032L417.297 633.23L417.452 634.833L417.22 635.895L416.351 637.479L416.718 638.851L416.989 640.068L418.263 639.894L418.9 641.188L420.387 642.483L419.441 643.584L419.75 644.666L421.217 645.67L422.511 646.076L423.361 647.119L423.631 649.785L424.693 649.823V156.72L423.477 157.106L422.357 155.715L421.333 154.035L420.136 153.958L419.479 155.6L419.673 156.797L419.344 157.821L418.34 159.135L417.027 159.56L415.965 158.98L415.096 157.976L413.706 157.087L412.625 156.739L411.408 156.817L410.269 156.546L409.072 157.184L409.052 158.246L408.222 159.328L406.909 159.405L405.596 158.826L404.341 159.135L403.047 159.096L401.966 158.034L401.309 156.99L399.823 156.295L398.818 154.981L397.679 154.151L396.482 152.412L395.536 151.137L394.435 150.384L393.586 149.341L392.717 148.085L391.693 147.332L390.013 146.134L388.951 146.018L387.986 147.08L386.422 147.196V20.6656H359.485V20.511H333.263L326.621 20.5689L270.932 20.4727Z" fill="#203375"/>
<g clip-path="url(#clip0)">
<path d="M261.568 347.251C258.309 350.479 257.574 355.471 259.764 359.501L240.128 379.137C238.787 380.477 238.787 382.652 240.128 383.994C241.469 385.335 243.644 385.335 244.986 383.994L264.62 364.359C266.131 365.183 267.826 365.613 269.547 365.609H269.575C272.319 365.611 274.947 364.509 276.871 362.553L279.066 360.337L263.785 345.056L261.568 347.251Z" fill="white"/>
<path d="M344.07 243.006C342.728 241.665 340.554 241.665 339.212 243.006C337.87 244.348 337.87 246.523 339.212 247.863L350.924 259.575L338.253 272.246L322.234 256.227C320.892 254.885 318.717 254.885 317.376 256.227C316.036 257.568 316.036 259.743 317.376 261.085L327.084 270.791L268.016 329.859C265.333 332.542 265.333 336.89 268.016 339.574L284.549 356.107C287.233 358.784 291.579 358.784 294.264 356.107L300.234 350.136L291.217 340.997C290.346 340.126 290.008 338.855 290.331 337.665C290.656 336.476 291.592 335.552 292.786 335.243C293.979 334.936 295.247 335.29 296.107 336.173L305.093 345.278L313.631 336.739L301.251 324.486C299.904 323.152 299.892 320.977 301.227 319.629C302.56 318.281 304.735 318.27 306.083 319.604L318.488 331.882L326.913 323.457L317.926 314.469C316.584 313.128 316.584 310.953 317.926 309.613C319.267 308.271 321.442 308.271 322.784 309.611L331.77 318.599L337.832 312.539L325.501 300.208C324.159 298.867 324.159 296.693 325.501 295.351C326.842 294.009 329.017 294.009 330.357 295.351L342.688 307.681L353.331 297.038L363.038 306.746C364.38 308.086 366.554 308.086 367.896 306.744C369.236 305.404 369.236 303.229 367.895 301.887L352.979 286.971L365.595 274.246L376.257 284.909C377.599 286.249 379.773 286.249 381.114 284.908C382.455 283.568 382.455 281.393 381.114 280.051L344.07 243.006Z" fill="white"/>
</g>
</g>
<defs>
<filter id="filter0_d" x="-1" y="-2" width="766" height="749" filterUnits="userSpaceOnUse" color-interpolation-filters="sRGB">
<feFlood flood-opacity="0" result="BackgroundImageFix"/>
<feColorMatrix in="SourceAlpha" type="matrix" values="0 0 0 0 0 0 0 0 0 0 0 0 0 0 0 0 0 0 127 0"/>
<feOffset dy="4"/>
<feGaussianBlur stdDeviation="12"/>
<feColorMatrix type="matrix" values="0 0 0 0 0 0 0 0 0 0 0 0 0 0 0 0 0 0 0.75 0"/>
<feBlend mode="normal" in2="BackgroundImageFix" result="effect1_dropShadow"/>
<feBlend mode="normal" in="SourceGraphic" in2="effect1_dropShadow" result="shape"/>
</filter>
<clipPath id="clip0">
<rect width="143" height="143" fill="white" transform="translate(239 242)"/>
</clipPath>
</defs>
</svg>
