<svg width="1383" height="500" viewBox="0 0 1383 500" fill="none" xmlns="http://www.w3.org/2000/svg">
<rect width="1383" height="500" fill="#D63432"/>
<path d="M135.61 367L253.72 145.66H203.19L119.18 311.82H118.56L103.99 145.66H55.32L80.74 367H135.61ZM214.411 255.4H255.641C257.087 247.34 260.911 241.45 267.111 237.73C273.311 233.803 280.337 231.84 288.191 231.84C291.084 231.84 294.081 232.15 297.181 232.77C300.487 233.183 303.484 234.113 306.171 235.56C309.064 237.007 311.441 238.97 313.301 241.45C315.161 243.93 316.091 247.237 316.091 251.37C316.091 256.537 314.851 260.463 312.371 263.15C309.891 265.63 306.067 267.593 300.901 269.04C295.941 270.28 289.637 271.21 281.991 271.83C274.344 272.45 265.354 273.38 255.021 274.62C235.594 276.893 220.507 282.68 209.761 291.98C199.221 301.28 193.951 313.68 193.951 329.18C193.951 334.76 194.984 340.133 197.051 345.3C199.117 350.26 202.321 354.703 206.661 358.63C211.001 362.35 216.374 365.347 222.781 367.62C229.394 369.893 237.041 371.03 245.721 371.03C255.021 371.03 264.011 369.48 272.691 366.38C281.371 363.073 288.707 358.01 294.701 351.19V367H338.721C337.687 363.487 337.171 360.387 337.171 357.7C337.171 354.6 337.274 350.983 337.481 346.85C337.894 342.51 338.514 338.893 339.341 336L353.601 271.52C355.874 261.187 357.011 252.197 357.011 244.55C357.217 235.457 355.151 228.223 350.811 222.85C346.677 217.27 341.304 213.033 334.691 210.14C328.077 207.04 320.844 204.973 312.991 203.94C305.137 202.907 297.594 202.39 290.361 202.39C281.267 202.39 272.484 203.32 264.011 205.18C255.537 206.833 247.891 209.727 241.071 213.86C234.251 217.993 228.464 223.47 223.711 230.29C218.957 236.903 215.857 245.273 214.411 255.4ZM307.411 290.12L303.071 305.62C301.831 309.96 300.281 314.3 298.421 318.64C296.561 322.98 293.977 326.907 290.671 330.42C287.571 333.727 283.644 336.517 278.891 338.79C274.344 340.857 268.661 341.89 261.841 341.89C255.434 341.89 249.751 340.443 244.791 337.55C240.037 334.45 237.661 329.903 237.661 323.91C237.661 318.95 238.591 314.92 240.451 311.82C242.311 308.513 244.687 305.93 247.581 304.07C250.681 302.21 254.194 300.867 258.121 300.04C262.047 299.007 266.077 298.283 270.211 297.87C276.617 297.457 283.024 296.94 289.431 296.32C295.837 295.493 301.831 293.427 307.411 290.12ZM479.838 262.22H523.858C523.652 251.68 521.585 242.587 517.658 234.94C513.938 227.293 508.772 221.093 502.158 216.34C495.752 211.587 488.208 208.073 479.528 205.8C470.848 203.527 461.652 202.39 451.938 202.39C437.472 202.39 424.658 205.077 413.498 210.45C402.338 215.617 392.832 222.85 384.978 232.15C377.332 241.243 371.442 251.887 367.308 264.08C363.382 276.067 361.418 288.88 361.418 302.52C361.418 326.08 367.618 343.44 380.018 354.6C392.625 365.553 410.192 371.03 432.718 371.03C453.798 371.03 471.158 365.657 484.798 354.91C498.645 343.957 508.875 328.457 515.488 308.41H471.468C470.228 312.337 468.575 316.16 466.508 319.88C464.648 323.393 462.168 326.493 459.068 329.18C456.175 331.867 452.765 334.037 448.838 335.69C445.118 337.343 440.778 338.17 435.818 338.17C430.238 338.17 425.485 337.24 421.558 335.38C417.838 333.52 414.738 331.04 412.258 327.94C409.778 324.84 408.022 321.223 406.988 317.09C405.955 312.75 405.438 308.203 405.438 303.45C405.438 296.63 406.162 289.293 407.608 281.44C409.262 273.38 411.845 265.94 415.358 259.12C418.872 252.3 423.522 246.72 429.308 242.38C435.095 237.833 442.122 235.56 450.388 235.56C460.308 235.56 467.645 237.627 472.398 241.76C477.358 245.893 479.838 252.713 479.838 262.22ZM636.594 262.22H680.614C680.408 251.68 678.341 242.587 674.414 234.94C670.694 227.293 665.528 221.093 658.914 216.34C652.508 211.587 644.964 208.073 636.284 205.8C627.604 203.527 618.408 202.39 608.694 202.39C594.228 202.39 581.414 205.077 570.254 210.45C559.094 215.617 549.588 222.85 541.734 232.15C534.088 241.243 528.198 251.887 524.064 264.08C520.138 276.067 518.174 288.88 518.174 302.52C518.174 326.08 524.374 343.44 536.774 354.6C549.381 365.553 566.948 371.03 589.474 371.03C610.554 371.03 627.914 365.657 641.554 354.91C655.401 343.957 665.631 328.457 672.244 308.41H628.224C626.984 312.337 625.331 316.16 623.264 319.88C621.404 323.393 618.924 326.493 615.824 329.18C612.931 331.867 609.521 334.037 605.594 335.69C601.874 337.343 597.534 338.17 592.574 338.17C586.994 338.17 582.241 337.24 578.314 335.38C574.594 333.52 571.494 331.04 569.014 327.94C566.534 324.84 564.778 321.223 563.744 317.09C562.711 312.75 562.194 308.203 562.194 303.45C562.194 296.63 562.918 289.293 564.364 281.44C566.018 273.38 568.601 265.94 572.114 259.12C575.628 252.3 580.278 246.72 586.064 242.38C591.851 237.833 598.878 235.56 607.144 235.56C617.064 235.56 624.401 237.627 629.154 241.76C634.114 245.893 636.594 252.713 636.594 262.22ZM751.5 181.93L759.56 145.66H715.23L707.17 181.93H751.5ZM702.21 206.73L668.42 367H712.44L746.54 206.73H702.21ZM766.315 206.73L733.145 367H776.855L794.835 281.75C796.075 276.17 797.831 270.693 800.105 265.32C802.585 259.947 805.581 255.193 809.095 251.06C812.815 246.927 817.155 243.62 822.115 241.14C827.281 238.453 833.171 237.11 839.785 237.11C844.951 237.11 849.705 238.66 854.045 241.76C858.591 244.86 860.865 248.787 860.865 253.54C860.865 255.813 860.451 259.017 859.625 263.15C859.005 267.283 858.488 270.59 858.075 273.07L838.545 367H882.565L902.405 273.07C902.611 271.623 902.921 269.763 903.335 267.49C903.955 265.01 904.471 262.427 904.885 259.74C905.505 257.053 906.021 254.47 906.435 251.99C906.848 249.303 907.055 247.133 907.055 245.48C907.055 216.753 891.451 202.39 860.245 202.39C837.098 202.39 818.395 211.277 804.135 229.05H803.515L808.475 206.73H766.315ZM929.166 255.4H970.396C971.843 247.34 975.666 241.45 981.866 237.73C988.066 233.803 995.093 231.84 1002.95 231.84C1005.84 231.84 1008.84 232.15 1011.94 232.77C1015.24 233.183 1018.24 234.113 1020.93 235.56C1023.82 237.007 1026.2 238.97 1028.06 241.45C1029.92 243.93 1030.85 247.237 1030.85 251.37C1030.85 256.537 1029.61 260.463 1027.13 263.15C1024.65 265.63 1020.82 267.593 1015.66 269.04C1010.7 270.28 1004.39 271.21 996.746 271.83C989.1 272.45 980.11 273.38 969.776 274.62C950.35 276.893 935.263 282.68 924.516 291.98C913.976 301.28 908.706 313.68 908.706 329.18C908.706 334.76 909.74 340.133 911.806 345.3C913.873 350.26 917.076 354.703 921.416 358.63C925.756 362.35 931.13 365.347 937.536 367.62C944.15 369.893 951.796 371.03 960.476 371.03C969.776 371.03 978.766 369.48 987.446 366.38C996.126 363.073 1003.46 358.01 1009.46 351.19V367H1053.48C1052.44 363.487 1051.93 360.387 1051.93 357.7C1051.93 354.6 1052.03 350.983 1052.24 346.85C1052.65 342.51 1053.27 338.893 1054.1 336L1068.36 271.52C1070.63 261.187 1071.77 252.197 1071.77 244.55C1071.97 235.457 1069.91 228.223 1065.57 222.85C1061.43 217.27 1056.06 213.033 1049.45 210.14C1042.83 207.04 1035.6 204.973 1027.75 203.94C1019.89 202.907 1012.35 202.39 1005.12 202.39C996.023 202.39 987.24 203.32 978.766 205.18C970.293 206.833 962.646 209.727 955.826 213.86C949.006 217.993 943.22 223.47 938.466 230.29C933.713 236.903 930.613 245.273 929.166 255.4ZM1022.17 290.12L1017.83 305.62C1016.59 309.96 1015.04 314.3 1013.18 318.64C1011.32 322.98 1008.73 326.907 1005.43 330.42C1002.33 333.727 998.4 336.517 993.646 338.79C989.1 340.857 983.416 341.89 976.596 341.89C970.19 341.89 964.506 340.443 959.546 337.55C954.793 334.45 952.416 329.903 952.416 323.91C952.416 318.95 953.346 314.92 955.206 311.82C957.066 308.513 959.443 305.93 962.336 304.07C965.436 302.21 968.95 300.867 972.876 300.04C976.803 299.007 980.833 298.283 984.966 297.87C991.373 297.457 997.78 296.94 1004.19 296.32C1010.59 295.493 1016.59 293.427 1022.17 290.12ZM1159.25 206.73L1169.17 158.06H1125.15L1115.23 206.73H1087.02L1080.2 236.18H1109.03L1091.05 322.05C1090.43 324.943 1089.92 327.733 1089.5 330.42C1089.09 332.9 1088.88 335.173 1088.88 337.24C1088.68 343.853 1089.71 349.227 1091.98 353.36C1094.46 357.493 1097.67 360.8 1101.59 363.28C1105.73 365.553 1110.27 367.103 1115.23 367.93C1120.4 368.963 1125.57 369.48 1130.73 369.48C1135.49 369.48 1140.14 369.273 1144.68 368.86C1149.23 368.653 1153.78 368.343 1158.32 367.93L1165.76 334.14C1160.6 334.76 1155.33 335.07 1149.95 335.07C1148.3 335.07 1146.54 335.07 1144.68 335.07C1143.03 334.863 1141.48 334.347 1140.03 333.52C1138.59 332.693 1137.35 331.557 1136.31 330.11C1135.49 328.457 1135.07 326.183 1135.07 323.29C1135.07 322.67 1135.18 321.74 1135.38 320.5C1135.59 319.053 1135.9 317.503 1136.31 315.85L1152.74 236.18H1184.05L1190.87 206.73H1159.25ZM1296 269.66H1222.53C1224.18 265.113 1226.15 260.773 1228.42 256.64C1230.9 252.507 1233.9 248.89 1237.41 245.79C1240.92 242.69 1245.06 240.21 1249.81 238.35C1254.56 236.49 1260.04 235.56 1266.24 235.56C1272.65 235.56 1277.81 236.593 1281.74 238.66C1285.67 240.52 1288.66 243.103 1290.73 246.41C1292.8 249.717 1294.14 253.437 1294.76 257.57C1295.59 261.497 1296 265.527 1296 269.66ZM1217.88 297.56H1335.99C1337.64 288.673 1338.47 280.303 1338.47 272.45C1338.47 260.877 1336.61 250.75 1332.89 242.07C1329.38 233.183 1324.31 225.847 1317.7 220.06C1311.29 214.067 1303.44 209.623 1294.14 206.73C1285.05 203.837 1274.92 202.39 1263.76 202.39C1250.12 202.39 1237.82 205.18 1226.87 210.76C1215.92 216.133 1206.62 223.47 1198.97 232.77C1191.53 241.863 1185.74 252.403 1181.61 264.39C1177.48 276.17 1175.41 288.467 1175.41 301.28C1175.41 312.853 1177.06 322.98 1180.37 331.66C1183.88 340.34 1188.74 347.677 1194.94 353.67C1201.14 359.457 1208.58 363.797 1217.26 366.69C1226.15 369.583 1235.96 371.03 1246.71 371.03C1258.28 371.03 1268.41 369.893 1277.09 367.62C1285.98 365.347 1293.73 361.937 1300.34 357.39C1306.95 352.637 1312.64 346.85 1317.39 340.03C1322.14 333.21 1326.28 325.253 1329.79 316.16H1285.77C1284.12 318.64 1282.26 321.223 1280.19 323.91C1278.33 326.597 1276.06 328.973 1273.37 331.04C1270.89 333.107 1267.89 334.863 1264.38 336.31C1261.07 337.55 1257.25 338.17 1252.91 338.17C1240.92 338.17 1232.04 335.277 1226.25 329.49C1220.46 323.703 1217.57 316.16 1217.57 306.86V302.83C1217.57 302.003 1217.57 301.177 1217.57 300.35C1217.57 299.523 1217.67 298.593 1217.88 297.56Z" fill="white"/>
</svg>
